# xmcd
#
# Track frame offsets:
#	150
#	15066
#	25790
#	39797
#	48226
#	61080
#	72614
#	85976
#	95664
#	108701
#	120171
#	132816
#
# Disc length: 1994 seconds
#
# Revision: 0
# Processed by: cddbd v1.5.2PL0 Copyright (c) Steve Scherf et al.
# Submitted via: EasyCDDAExtractor 16.0.6.1
#
DISCID=8c07c80c
DTITLE=Πουλόπουλος Γιάννης - Μεγάλες επιτυχίες-Γ. Πουλόπουλος
DYEAR=1998
DGENRE=Ελαφρολαϊκή
TTITLE0=Ξημερώνει Κυριακή [Μ. Πλέσσας-Λ. Παπαδόπουλος]
TTITLE1=Έξι φεγγάρια [Μ. Πλέσσας-Λ. Παπαδόπουλος]
TTITLE2=Κάθε Μάρτη, κάθε Απρίλη, κάθε Μάη [Γ. Γλέζος-Δ. Τζεφρώνης]
TTITLE3=Ο Τρελλός [Μ. Πλέσσας-Λ. Παπαδόπουλος]
TTITLE4=Του σπιτιού μου το στενό [Γ. Πουλόπουλος]
TTITLE5=Η Μυρσίνη βάζει τ' άσπρα [Μ. Πλέσσας-Λ. Παπαδόπουλος]
TTITLE6=Παιδί μου, ώρα σου καλή [Γ. Σπανός-Γ. Βιζυηνός]
TTITLE7=Δώδεκα μαντολίνα [Μ. Πλέσσας-Λ. Παπαδόπουλος]
TTITLE8=Ένα μαχαίρι [Λ. Κόκοτος-Ά. Δασκαλόπουλος]
TTITLE9=Στου σπιτιού σου το στενάκι [Μ. Πλέσσας-Λ. Παπαδόπουλος]
TTITLE10=Αυτοί που μένουν κι αυτοί που φεύγουν [Γ.Ζαμπέτας-Α.Καγιάντας]
TTITLE11=Έπεφτε βαθειά σιωπή [Μ. Πλέσσας-Λ. Παπαδόπουλος]
EXTD=
EXTT0=
EXTT1=
EXTT2=
EXTT3=
EXTT4=
EXTT5=
EXTT6=
EXTT7=
EXTT8=
EXTT9=
EXTT10=
EXTT11=
PLAYORDER=
